<svg xmlns="http://www.w3.org/2000/svg" width="94" height="43" viewBox="0 0 94 43"><path fill="#ffffff" d="M93.8399657,5.00353584 L84.6069551,38.7904568 C84.2999712,39.913104 83.58733,40.911354 82.6710771,41.6577378 C82.6616796,41.6684882 82.6585471,41.6807743 82.6475834,41.6899889 C82.6366197,41.7007393 82.6209573,41.7038109 82.6084273,41.7130255 C81.6075971,42.5085539 80.3702641,43 79.1219673,43 L25.8696584,43 C24.6699152,43 23.6033028,42.5269831 22.8703004,41.7222401 C22.8671679,41.7176328 22.8624692,41.7145612 22.8593367,41.7099539 C22.8045182,41.6485232 22.7356034,41.6024501 22.6854836,41.536412 C22.6713874,41.5195186 22.6651224,41.4980178 22.6510262,41.4795886 C22.6384963,41.4626951 22.6212676,41.4504089 22.6087376,41.4319797 C22.5899427,41.4043359 22.5868102,41.3720847 22.5711478,41.3444409 C21.9289876,40.4091575 21.7316408,39.208186 22.0636846,37.9964642 L31.2966952,4.2095432 C31.6068116,3.07614558 32.3288502,2.06868102 33.2576332,1.31922569 C33.2591994,1.31768992 33.2591994,1.31768992 33.2607656,1.31615415 C33.2607656,1.31461838 33.2623319,1.31461838 33.2638981,1.31461838 C34.269427,0.503732276 35.51929,0 36.781683,0 L90.0339919,0 C91.329276,0 92.4898631,0.53291189 93.2181667,1.46358799 C93.2447929,1.49737491 93.2573228,1.5373049 93.2823827,1.57262759 C93.283949,1.57416336 93.2855152,1.57416336 93.2870815,1.57569913 C93.2886477,1.57877067 93.2886477,1.58184221 93.290214,1.58491375 C93.969964,2.52941176 94.1798408,3.76263438 93.8399657,5.00353584 Z M78.8431758,39.9299975 L63.3091641,23.5233758 L60.0498095,25.7087753 C59.0677743,26.3706918 57.9776682,26.6978106 56.9517781,26.6978106 C55.8052872,26.6978106 54.7355423,26.2908318 53.97748,25.4799457 L52.1277454,23.5249116 L27.6285509,39.9299975 L78.8431758,39.9299975 Z M34.4056903,4.78545662 C34.3759316,4.85763777 34.3414743,4.92981892 34.3211131,5.00353584 L25.3841227,37.7123469 L49.9725932,21.2458302 L34.4056903,4.78545662 Z M37.0557758,3.07153827 L53.6626649,20.6315226 C53.6642312,20.6315226 53.6642312,20.6330583 53.6642312,20.6330583 L53.6642312,20.6330583 L56.278293,23.3974428 C56.5931082,23.7322404 57.4420126,23.7399193 58.2783871,23.1747562 L88.2797982,3.07153827 L37.0557758,3.07153827 Z M65.9247922,21.7710633 L81.4963938,38.2176149 C81.5261524,38.143898 81.5606098,38.0717168 81.580971,37.9964642 L90.5179614,5.29072467 L65.9247922,21.7710633 Z M23.4936657,9.21461481 L15.6624438,9.21461481 C14.7978769,9.21461481 14.0961994,8.52659024 14.0961994,7.67884567 C14.0961994,6.82956534 14.7978769,6.14307654 15.6624438,6.14307654 L23.4936657,6.14307654 C24.3582326,6.14307654 25.0599101,6.82956534 25.0599101,7.67884567 C25.0599101,8.52659024 24.3582326,9.21461481 23.4936657,9.21461481 Z M21.9274213,19.9649987 C21.9274213,20.8127433 21.2257438,21.5007679 20.3611769,21.5007679 L7.8312219,21.5007679 C6.966655,21.5007679 6.26497752,20.8127433 6.26497752,19.9649987 C6.26497752,19.1157184 6.966655,18.4292296 7.8312219,18.4292296 L20.3611769,18.4292296 C21.2257438,18.4292296 21.9274213,19.1157184 21.9274213,19.9649987 Z M18.7949326,32.2511518 C18.7949326,33.0988964 18.0932551,33.786921 17.2286882,33.786921 L1.56624438,33.786921 C0.701677482,33.786921 0,33.0988964 0,32.2511518 C0,31.4018715 0.701677482,30.7138469 1.56624438,30.7138469 L17.2286882,30.7138469 C18.0932551,30.7138469 18.7949326,31.4018715 18.7949326,32.2511518 Z"/></svg>
